<mxfile host="app.diagrams.net" modified="2021-12-20T08:14:33.122Z" agent="5.0 (Windows NT 10.0; Win64; x64) AppleWebKit/537.36 (KHTML, like Gecko) Chrome/96.0.4664.110 Safari/537.36 Edg/96.0.1054.57" etag="FBuvqx3elBmFIJiU6GsQ" version="15.7.1" type="github">
  <diagram name="Page-1" id="58cdce13-f638-feb5-8d6f-7d28b1aa9fa0">
    <mxGraphModel dx="1422" dy="832" grid="1" gridSize="10" guides="1" tooltips="1" connect="1" arrows="1" fold="1" page="1" pageScale="1" pageWidth="1100" pageHeight="850" background="none" math="0" shadow="0">
      <root>
        <mxCell id="0" />
        <mxCell id="1" parent="0" />
        <mxCell id="VqwsV6M5M6zdxlSA_bQw-1" value="&lt;p style=&quot;margin: 0px ; margin-top: 4px ; text-align: center&quot;&gt;&lt;i&gt;User-Info Table&lt;/i&gt;&lt;br&gt;&lt;b&gt;HotelManagement_User&lt;/b&gt;&lt;/p&gt;&lt;hr size=&quot;1&quot;&gt;&lt;p style=&quot;margin: 0px ; margin-left: 4px&quot;&gt;+ User ID: &lt;span style=&quot;white-space: pre&quot;&gt;	&lt;/span&gt;&amp;nbsp; &amp;nbsp; &amp;nbsp; Integer&lt;br&gt;+ User Name: &lt;span style=&quot;white-space: pre&quot;&gt;	&lt;/span&gt;&amp;nbsp; &amp;nbsp; &amp;nbsp; String&lt;/p&gt;&lt;p style=&quot;margin: 0px ; margin-left: 4px&quot;&gt;+ User Email: &lt;span style=&quot;white-space: pre&quot;&gt;	&amp;nbsp;&lt;/span&gt;&amp;nbsp; &amp;nbsp; &amp;nbsp;String&lt;/p&gt;&lt;p style=&quot;margin: 0px ; margin-left: 4px&quot;&gt;+ User Password:&amp;nbsp; String&lt;/p&gt;&lt;p style=&quot;margin: 0px ; margin-left: 4px&quot;&gt;+ Rooms Booked: &lt;span style=&quot;white-space: pre&quot;&gt;	&lt;/span&gt;&amp;lt;int,string&amp;gt; pair&lt;/p&gt;&lt;hr size=&quot;1&quot;&gt;&lt;p style=&quot;margin: 0px ; margin-left: 4px&quot;&gt;+ RegisterUser()&lt;br&gt;+ LoginCheck()&lt;/p&gt;" style="verticalAlign=top;align=left;overflow=fill;fontSize=12;fontFamily=Helvetica;html=1;" vertex="1" parent="1">
          <mxGeometry x="660" y="100" width="240" height="190" as="geometry" />
        </mxCell>
        <mxCell id="VqwsV6M5M6zdxlSA_bQw-2" value="&lt;p style=&quot;margin: 0px ; margin-top: 4px ; text-align: center&quot;&gt;&lt;i&gt;Booked-Rooms Schedule&lt;/i&gt;&lt;br&gt;&lt;b&gt;HotelManagaement_schedule&lt;/b&gt;&lt;/p&gt;&lt;hr size=&quot;1&quot;&gt;&lt;p style=&quot;margin: 0px ; margin-left: 4px&quot;&gt;+ Booking ID&lt;span style=&quot;white-space: pre&quot;&gt;	&lt;/span&gt;: &lt;span style=&quot;white-space: pre&quot;&gt;	&lt;/span&gt;Integer&lt;/p&gt;&lt;p style=&quot;margin: 0px ; margin-left: 4px&quot;&gt;+ Customer ID&lt;span style=&quot;white-space: pre&quot;&gt;	&lt;/span&gt;: &lt;span style=&quot;white-space: pre&quot;&gt;	&lt;/span&gt;Integer&lt;/p&gt;&lt;p style=&quot;margin: 0px ; margin-left: 4px&quot;&gt;+ Room_Booked: &lt;span style=&quot;white-space: pre&quot;&gt;	&lt;/span&gt;Integer&lt;/p&gt;&lt;p style=&quot;margin: 0px ; margin-left: 4px&quot;&gt;+ Start_Date&lt;span style=&quot;white-space: pre&quot;&gt;	&lt;/span&gt;: &lt;span style=&quot;white-space: pre&quot;&gt;&lt;span style=&quot;white-space: pre&quot;&gt;	&lt;/span&gt;&lt;/span&gt;Datetype&lt;/p&gt;&lt;p style=&quot;margin: 0px ; margin-left: 4px&quot;&gt;+ End_Date&lt;span style=&quot;white-space: pre&quot;&gt;	&lt;/span&gt;:&amp;nbsp; &lt;span style=&quot;white-space: pre&quot;&gt;&lt;span style=&quot;white-space: pre&quot;&gt;	&lt;/span&gt;&lt;/span&gt;Datetype&lt;/p&gt;&lt;p style=&quot;margin: 0px ; margin-left: 4px&quot;&gt;+ Room_Type&lt;span style=&quot;white-space: pre&quot;&gt;	&lt;/span&gt;: &lt;span style=&quot;white-space: pre&quot;&gt;	&lt;/span&gt;String&lt;/p&gt;&lt;hr size=&quot;1&quot;&gt;&lt;p style=&quot;margin: 0px ; margin-left: 4px&quot;&gt;+ BookRoom()&lt;br&gt;+ CheckBookedRooms()&lt;/p&gt;" style="verticalAlign=top;align=left;overflow=fill;fontSize=12;fontFamily=Helvetica;html=1;" vertex="1" parent="1">
          <mxGeometry x="80" y="95" width="270" height="200" as="geometry" />
        </mxCell>
        <mxCell id="VqwsV6M5M6zdxlSA_bQw-3" value="&lt;p style=&quot;margin: 0px ; margin-top: 4px ; text-align: center&quot;&gt;&lt;i&gt;Per-Room-Information&lt;/i&gt;&lt;br&gt;&lt;b&gt;HotelManagement_Rooms&lt;/b&gt;&lt;/p&gt;&lt;hr size=&quot;1&quot;&gt;&lt;p style=&quot;margin: 0px ; margin-left: 4px&quot;&gt;+ Customer_ID:&lt;span style=&quot;white-space: pre&quot;&gt;	&lt;/span&gt;Integer&lt;br&gt;+ Is_Empty&lt;span style=&quot;white-space: pre&quot;&gt;	&lt;/span&gt;: &lt;span style=&quot;white-space: pre&quot;&gt;	&lt;/span&gt;Boolean&lt;/p&gt;&lt;p style=&quot;margin: 0px ; margin-left: 4px&quot;&gt;+ Room_Type&lt;span style=&quot;white-space: pre&quot;&gt;	&lt;/span&gt;: &lt;span style=&quot;white-space: pre&quot;&gt;	&lt;/span&gt;String&lt;/p&gt;&lt;p style=&quot;margin: 0px ; margin-left: 4px&quot;&gt;+ Start_Date&lt;span style=&quot;white-space: pre&quot;&gt;	&lt;/span&gt;: &lt;span style=&quot;white-space: pre&quot;&gt;	&lt;/span&gt;Datetype&lt;/p&gt;&lt;p style=&quot;margin: 0px ; margin-left: 4px&quot;&gt;+ End_Date&lt;span style=&quot;white-space: pre&quot;&gt;	&lt;/span&gt;: &lt;span style=&quot;white-space: pre&quot;&gt;	&lt;/span&gt;Datetype&lt;/p&gt;&lt;p style=&quot;margin: 0px ; margin-left: 4px&quot;&gt;+ Room_ID&lt;span style=&quot;white-space: pre&quot;&gt;	&lt;/span&gt;: &lt;span style=&quot;white-space: pre&quot;&gt;	&lt;/span&gt;Integer&lt;/p&gt;&lt;hr size=&quot;1&quot;&gt;&lt;p style=&quot;margin: 0px ; margin-left: 4px&quot;&gt;+ UpdateRoomDetails()&lt;br&gt;&lt;/p&gt;" style="verticalAlign=top;align=left;overflow=fill;fontSize=12;fontFamily=Helvetica;html=1;" vertex="1" parent="1">
          <mxGeometry x="390" y="390" width="240" height="180" as="geometry" />
        </mxCell>
        <mxCell id="VqwsV6M5M6zdxlSA_bQw-7" value="" style="curved=1;endArrow=classic;html=1;rounded=0;entryX=-0.017;entryY=0.544;entryDx=0;entryDy=0;entryPerimeter=0;exitX=0.452;exitY=1.025;exitDx=0;exitDy=0;exitPerimeter=0;" edge="1" parent="1" source="VqwsV6M5M6zdxlSA_bQw-2" target="VqwsV6M5M6zdxlSA_bQw-3">
          <mxGeometry width="50" height="50" relative="1" as="geometry">
            <mxPoint x="500" y="720" as="sourcePoint" />
            <mxPoint x="550" y="670" as="targetPoint" />
            <Array as="points">
              <mxPoint x="202" y="430" />
              <mxPoint x="202" y="488" />
              <mxPoint x="280" y="488" />
            </Array>
          </mxGeometry>
        </mxCell>
        <mxCell id="VqwsV6M5M6zdxlSA_bQw-9" value="" style="endArrow=classic;startArrow=classic;html=1;rounded=0;entryX=-0.021;entryY=0.316;entryDx=0;entryDy=0;exitX=1;exitY=0.325;exitDx=0;exitDy=0;exitPerimeter=0;entryPerimeter=0;" edge="1" parent="1" source="VqwsV6M5M6zdxlSA_bQw-2" target="VqwsV6M5M6zdxlSA_bQw-1">
          <mxGeometry width="50" height="50" relative="1" as="geometry">
            <mxPoint x="480" y="290" as="sourcePoint" />
            <mxPoint x="530" y="240" as="targetPoint" />
            <Array as="points" />
          </mxGeometry>
        </mxCell>
        <mxCell id="VqwsV6M5M6zdxlSA_bQw-10" value="" style="curved=1;endArrow=classic;html=1;rounded=0;entryX=0.5;entryY=1;entryDx=0;entryDy=0;" edge="1" parent="1" target="VqwsV6M5M6zdxlSA_bQw-1">
          <mxGeometry width="50" height="50" relative="1" as="geometry">
            <mxPoint x="710" y="490" as="sourcePoint" />
            <mxPoint x="830" y="440" as="targetPoint" />
            <Array as="points">
              <mxPoint x="750" y="490" />
              <mxPoint x="780" y="490" />
              <mxPoint x="780" y="470" />
              <mxPoint x="780" y="440" />
            </Array>
          </mxGeometry>
        </mxCell>
        <mxCell id="VqwsV6M5M6zdxlSA_bQw-11" value="" style="endArrow=classic;html=1;rounded=0;" edge="1" parent="1">
          <mxGeometry width="50" height="50" relative="1" as="geometry">
            <mxPoint x="710" y="490" as="sourcePoint" />
            <mxPoint x="630" y="490" as="targetPoint" />
          </mxGeometry>
        </mxCell>
      </root>
    </mxGraphModel>
  </diagram>
</mxfile>
